/* XPM */
static char *_4c18114f2a14d95f68796b5ae174055FEkCoC6vw3O68i2g[] = {
/* columns rows colors chars-per-pixel */
"64 64 144 2 ",
"   c #000000",
".  c #020800",
"X  c #0B0B00",
"o  c #051201",
"O  c #0C1E02",
"+  c #161600",
"@  c #191900",
"#  c #0B2302",
"$  c #0D2C02",
"%  c #1B2801",
"&  c #0F3302",
"*  c #0E3B02",
"=  c #133403",
"-  c #1E3401",
";  c #153D03",
":  c #252500",
">  c #243E01",
",  c #2F3B01",
"<  c #313100",
"1  c #3C3C00",
"2  c #174304",
"3  c #1C4404",
"4  c #174904",
"5  c #125102",
"6  c #165903",
"7  c #1B5A05",
"8  c #235404",
"9  c #285502",
"0  c #265B06",
"q  c #3E5D03",
"w  c #1C6C04",
"e  c #1C7A03",
"r  c #206105",
"t  c #246B05",
"y  c #296904",
"u  c #336404",
"i  c #267705",
"p  c #2A7406",
"a  c #247C05",
"s  c #287906",
"d  c #2F7C08",
"f  c #307D08",
"g  c #434400",
"h  c #4D4D00",
"j  c #475A01",
"k  c #545400",
"l  c #585800",
"z  c #5F6601",
"x  c #5B6E01",
"c  c #616100",
"v  c #696900",
"b  c #6D7601",
"n  c #737300",
"m  c #7B7B00",
"M  c #178402",
"N  c #1A8703",
"B  c #178B01",
"V  c #1B8E03",
"C  c #159101",
"Z  c #1E9203",
"A  c #1C9A02",
"S  c #268206",
"D  c #2A8506",
"F  c #248A05",
"G  c #2C8C06",
"H  c #368A09",
"J  c #249404",
"K  c #2A9606",
"L  c #249B04",
"P  c #2C9B06",
"I  c #2E9608",
"U  c #2F9A08",
"Y  c #329407",
"T  c #319C07",
"R  c #359109",
"E  c #349C08",
"W  c #3A9E0A",
"Q  c #1DA903",
"!  c #25A204",
"~  c #2CA206",
"^  c #24AA03",
"/  c #2FAA06",
"(  c #31A307",
")  c #30A507",
"_  c #31A706",
"`  c #39A507",
"'  c #30A906",
"]  c #35AA07",
"[  c #32AD07",
"{  c #38A807",
"}  c #31A108",
"|  c #35A108",
" . c #35A309",
".. c #36A10A",
"X. c #35A608",
"o. c #3AA108",
"O. c #3DA00A",
"+. c #3EA30B",
"@. c #3AA508",
"#. c #3AA40A",
"$. c #3FA70B",
"%. c #34A908",
"&. c #35AA08",
"*. c #36AD08",
"=. c #3AA809",
"-. c #3BAB0A",
";. c #3EA90A",
":. c #3CAB0A",
">. c #39AC09",
",. c #3CAF0A",
"<. c #34B007",
"1. c #39B208",
"2. c #3CB109",
"3. c #3BB408",
"4. c #449B0C",
"5. c #7C8700",
"6. c #41A20B",
"7. c #42A40B",
"8. c #49A60D",
"9. c #48A70D",
"0. c #42A80B",
"q. c #43AB0B",
"w. c #42AD0A",
"e. c #4BA90D",
"r. c #46B30C",
"t. c #48B10D",
"y. c #53B10F",
"u. c #8E8E00",
"i. c #8B9201",
"p. c #959500",
"a. c #9B9F00",
"s. c #9C9C00",
"d. c #ADAD00",
"f. c #AFAF00",
"g. c #B0B000",
"h. c #B8B800",
"j. c #C6C600",
"k. c #CBCB00",
"l. c #D4D400",
"z. c #DBDB00",
"x. c #E2E200",
"c. c #ECEC00",
"v. c #F5F500",
"b. c #FFFF00",
/* pixels */
"W U J | L L ~ ~ J o.| &.=.o.~ ) L ~ I Z ( U U U ! o.! J Y J Z T Z +...~ } L @.J K L W L K L ! ) L I Y | @.K +.| +.P o.F P T ~ Z ",
"J ~ U O.J K L O.=.| T I P W U Z <.K T T ' | ~ ~ J U T A J U Z J L | e.6.@.J T o.U L K L =.! P L W L } T | U C +.T L _ E E L P } ",
"K E J P ' o.>.! K P L } [ J K | K P T L  .%.T Z J T T Z @.%.J U J W W  .,.K -.U 9.J y.T L ~ $.L U 3.J L %.0.L U P @.| T ;.K E W ",
"J / V K o.J O.' J ~ | >.P K L +.T W } U L P U P J >.L &.T #     o 2.L q.W P @.P W } } J J ..T U ..L L J E T L ! %.! J I  .q.o.J ",
"*.1.W P P L J B P ) L +.L #.T I T P _ ,.P I K U T T / 6 = i.d.d.a.& 0 ~ J W U _ .. .T ! | U T W @.T q.J L +.| W } J I ..U E U J ",
"P { W A E @.I L I U | J @.T L W ;.} J o.I T P K | t O 5.j.v.b.b.v.j.i.# t ..~ T  .L  ...o.W E P U ~ T Z q.q.%.;.Z _ ~ ~ E J ~ K ",
"*.o.U w.I w.K J O.~ E / K J ..P  .w.L W P &.U G o z z.v.b.b.b.b.b.b.v.z.b o s W U W K W | U P +.L U K P #...P -.L W T @._ J P T ",
">.J L E P P 2.~ @.T L L } W  .o.~ / &.L ~ L   < b.b.b.b.b.b.b.b.b.b.b.b.b.b.g   R L *.K o./ r.P W 6.W K J L J W L K J o.L J E L ",
"&.K E L J Y K ~ W o.J Y ! q.L P U G K #.N G + g b.b.b.b.b.b.b.b.b.b.b.b.b.b.k + e D 4.R J R 6.} T K E J I ~ } K J ~ ~ @.Z P >.! ",
"L K A P ~ E ~ +.J T 6.J P J I s 9 < < < < < b.b.b.b.b.b.b.b.b.b.b.b.b.b.b.b.b.b.q : < < < , y d R E A E ~ J P T L &.I U } o.' K ",
"L T E L | Z T +.~ } t. .G f 8 < p.b.b.b.b.b.b.b.b.b.b.b.b.b.b.b.b.b.b.b.b.b.b.b.b.b.b.b.b.x.v < t S @.K P J E ;.$.L W | ;.;.~ J ",
"%.0.=.o.e.| I L F O.J Y 0 > b j.x.b.b.b.b.b.b.b.b.b.b.b.b.b.b.b.b.b.b.b.b.b.b.b.b.b.b.b.b.v.z.j.j - G T / P L J W / } ~ U ~ %.W ",
"W _ W T +...q.L o.U r 2 x s.j.b.b.b.b.b.b.b.b.b.b.b.b.b.b.b.b.b.b.b.b.b.b.b.b.b.b.b.b.b.b.b.b.b.f.p.3 3 Z ~ _ T K J E ~ ~ K J O.",
"! P V P J 2.~ K K J =   u.b.b.b.b.b.b.b.b.b.b.b.b.b.b.b.b.b.b.b.b.b.b.b.b.b.b.b.b.b.b.b.b.b.b.b.b.b.X . L 1.J P / / &.P U =._ L ",
"@.Z W ;.I T @.L } } i t q k s.b.b.b.b.b.b.b.b.b.b.b.b.b.b.b.b.b.b.b.b.b.b.b.b.b.b.b.b.b.b.b.b.v.m h p w K J P } / I L U +.~ ! ! ",
"K L P I T T L P Y P K L W a u < p.b.b.b.b.b.b.b.b.b.b.b.b.b.b.b.b.b.b.b.b.b.b.b.b.b.b.b.b.x.n < t a ~ U W o.6.K L _ A /  .T o.| ",
"L W J K T E +.E >.K $.2.q.+.O.R 8 @ @ @ @ @ b.b.b.b.b.b.b.b.b.b.b.b.b.b.b.b.b.b.: @ @ @ @ % t M J J P P J K [ ! J o.} J L W T ! ",
"J U W P P U A L [ T |  . .Y 5           x.b.b.b.b.b.b.b.b.b.b.b.b.b.b.b.b.b.b.b.b.v.@ .       . f E K L >.~ P J P W J J T 4.T W ",
"&.A L ~ K J K L L I F F ;       X @ h.b.b.b.b.b.b.b.b.b.b.b.b.b.b.b.b.b.b.b.b.b.b.b.b.z.l @ X       a G E +.U =.V o.q.W P &.6.P ",
"Z K Z *.U T U J D e #           m b.b.b.b.b.b.b.b.b.b.b.b.l.j.j.k.b.b.b.b.b.b.b.b.b.b.b.b.z.h         . e F W T I } ~ P O.P T | ",
"K Z r.+.E L H w #               m b.b.b.b.b.b.b.b.b.b.k.d.:     + g.j.b.b.b.b.b.b.b.b.b.b.z.h             O w i T K W T K K P o.",
"J | ~ ! G 7 =                   m b.b.b.b.b.b.b.b.l.p.1             < p.k.b.b.b.b.b.b.b.b.z.h                 $ 6 D T E } w.| K ",
"q.=.L 4 &                       1 m l.b.b.b.b.x.m h                     g m z.b.b.b.b.c.a.v :                     = 8 T %.r.;.P ",
">.K ~                               g c c c c h                             g c c c c k @                             = * *.;.J ",
"P T U                                                                                                                     W P J ",
"T T K                                                                                                                     @.T @.",
"..q.~                                                                                                                     U J U ",
"K P U                                                                                                                     L  .U ",
"U P T                                                                                                                     W  .@.",
"| o.>.                                                                                                                    T J U ",
"+.e.W                                                                                                                     L Z ~ ",
"+.J P                                                                                                                     K _ T ",
"U J L                                                                                                                     T U U ",
"_ ! K                                                                                                                     W +.I ",
"J E W                                                                                                                     o.K U ",
"Z P @.                                                                                                                    L L L ",
"| ' W                                                                                                                     E | o.",
" .! J                                                                                                                     J  .^ ",
"J q.;.                                                                                                                    L J T ",
"Z E '                                                                                                                     *.L ) ",
"A J J                                                                                                                     T ..U ",
" .P W                                                                                                                     K o.U ",
"K L q.                                                                                                                    T K Z ",
"~ C L                                                                                                                     ;.J Y ",
"P K U                                                                                                                     ! T W ",
"J W E                                                                                                                     Z ~ K ",
"~ o.A                                                                                                                     A P T ",
"! L P                                                                                                                     K U E ",
"K K +.                                                                                                                    L U E ",
"U ~ ~                                                                                                                     U T P ",
"~ L P                                                                                                                     T 0.^ ",
"^ | +.                                                                                                                    L 8.T ",
"~ T K                                                                                                                     =.T #.",
"@.$.J                                                                                                                     P E T ",
"~ W ~                                                                                                                     $.U P ",
"L } +.                                                                                                                    W L L ",
"-.T W                                                                                                                     K U } ",
"L W _                                                                                                                     Z +.T ",
"I ..~                                                                                                                   . ~ T U ",
"%.Z ~                                                                                                                     / P q.",
"@.P P                                                                                                                     E J L ",
"W ~ P                                                                                                                     W L W ",
"~ L I P Z T L | ~ } L T K K W } K / } ! L ~ | V U P W >.W +.T J ..L / Z P I T  .P +.J W L ~ T | W } W | E P +.U ~ _ P } @.P U ~ ",
"o.6.Q P [ Z K V U W K U P q...*.O.o.T P J K ;.P =.W W I W E ~ P T =.~ $.T q.~ ) W L ~ T J J T L K +.L $.=. .U %.@.L W P q.T L J "
};
