/* XPM */
static char *result[] = {
/* columns rows colors chars-per-pixel */
"64 64 46 1 ",
"  c #0E8E00",
". c #148D01",
"X c #1B8E03",
"o c #0E9100",
"O c #159201",
"+ c #1D9203",
"@ c #179801",
"# c #1D9A03",
"$ c #208F04",
"% c #249404",
"& c #2A9606",
"* c #249B04",
"= c #2C9B06",
"- c #2E9608",
"; c #2F9A08",
": c #319707",
"> c #319C07",
", c #309708",
"< c #349C08",
"1 c #3A9E0A",
"2 c #1DA102",
"3 c #1DA903",
"4 c #25A204",
"5 c #2CA206",
"6 c #24AA03",
"7 c #2CA906",
"8 c #2FA408",
"9 c #32A307",
"0 c #39A407",
"q c #33AA07",
"w c #39AB07",
"e c #34A308",
"r c #3BA30A",
"t c #35AA08",
"y c #3BAB09",
"u c #35B107",
"i c #3CB209",
"p c #419F0C",
"a c #42A40B",
"s c #48A60D",
"d c #43AB0B",
"f c #4AAB0D",
"g c #43B20B",
"h c #4AB10D",
"j c #45BB0C",
"k c #53B10F",
/* pixels */
"1;%e**=7%1eqyr*q*5:%8=;;5r**:%+:+re>e*r*=%r*&*4q*,<er&y1r=<%:-5+",
"%5:1%%*rre>&&1;+7=<:q9=7+=;*%-+%*ef1e%=r>*&*e48*,%<<e-O1-&q<<*=9",
"&<*-wrw*&=*eq%;e&=1*9w;+%;=+rq%;&:rwd=y;s%k;*ey*;i%*ed*=5w<<d&e1",
"%qO&1*rq%5ew=&&r:15=*-==%d*q8h+8-i&d>&r=<ee%%e<%e*%&91%*q4%-ey1%",
"tir-5*%.&9*a*r>;:=9i=--=9=t=ea;=r<f4%<99<e>*e:<0eey&*re19%-e=1-%",
"=w1#:r=%&51%t:*1y9*1=-:=91%*<&q=1:07we5<q*rer1=-=7<+yfty+955:%=*",
"t0-d-g&%r5>7&%e;9y=1>w=9ewu><&%er9=d&%<r:1-<9=-r&;-;ye-y*15r9%>>",
"w%*>==i5r:*+ere178w*4*&w8:e:a<<+-ryrdqw&<*w&rwg=<p<&%*%1#=%r=%>*",
"q&<%%:&=1r%-*d#59:8g+=*5we&a%=1%e&r*d*&*X:f990a9<*<+-5e&%57r+*y*",
"***==<5a%<p%-&>;&<9=5>*5+1=r1*&+1%:&075r&9ae>&9-:1+e4#-=*e&-e09&",
"*:>*9%>r5ehq>1%$9*.=4&0:<-%>=*+&-98w=-9%1ere>=<y-5r&:&>yd*reyy5%",
"wdy1f9-*%1*1>7<1i*--->-98y%1=8;;d=&%&><%r%r==**&9>>075*%1995;5ye",
"181:aea*r=tr&>r#=9r>9&q=<+e.=>ee*9%>*r5&-%r&**&**-r<X591&%e5>&%r",
"4=O-*i5=&*d&+1-r;@a8=r-%,%dry5e5&-&>&:XX>5459%%:5d+>*i%=q5q5=y>*",
"9%ed-=r*15:1r9*4*%**e+tq*<a1ra><e-*-**<*<jX<>1y1=*w*&*&98=%>a544",
"-*=-&1*=--&*d5gr&+1197:a%y4&1r=&<-a<r<=99Xe8*p0>===->ra=%q+7q=re",
"*1%-:>a:w*aidyr11%<*X0<9&*%e=r>*qe0wyw8>w-r9%>9+&%=-+=w4%0=%*1>4",
"%=e-=5@=q>ere:*r%=9<1*e9r;=dq%%>qre&%>95*r&>*1%4d8*#y9-%=1&%:a11",
"q#*9=%&**-%&1=09&9<*a&r=#**a<-+19a&%-a-0#qw>aw==9+:<<r-tXryr=9r*",
"+&+t=:=%=*+4rr14%4=59y%9=h&--,ee1%t=>r-4#5-=%@w:e**>*5e1&9>=y-=r",
"%%dre*a59t5+&<&a:a%*9r&&.e%5q:=>e5=ey%+4y%->5e1%%-&%+d&&-=e:&&-r",
"%e54:<:>a&19>&y%*1<*:ey&*%e*#-e=dr%--r*5&%#&e-e<%%f&&a9**:>1ed9&",
"dw==-495%r1y7=*=:e=*=r>q5we*%e9&1%e&=e8=1><1&&:%7*e*w+=*4rf0wgy-",
"i&80r*&fyt5r*5%:<ry*1d+1y&#%r&51<d>-r;r8>7r%&&****%5=00&8ytr4ty%",
"-;-%9%a*q=&e%>&r-1>%&a&5e=:4#-+>t9d5>11%rr=r<7=a>8**&q99*171%>;%",
">9&75>-&-%ee=w&5fr1>e-&-a-797*-d4=w5<a>-90yet-9*&<<%d8#57&>=;r1y",
"9y51&&11%&X&90+&9i&=*.59e-++%e&-5=><5d&*550%9a&r7w-=<.&1-91*&;%&",
"---*e1%-rr%&*=&g-*8r*&%*-+*9>5*r+&%14i-*-<-y+<&&1=:1%9X*0::ed*e;",
"=>;-*+>ee15=&-*<=+dr&=%:a+*1-59i-1==%05<*>f*=9w0<=f>9<%rw=9-ar9r",
"ery&158e5*-4***&>#::+8r4>y%>*:ye+*ud*=-5d*d5-d-e<97er5r54=%>-:%=",
"rsa5=r>ewe:da>*4r&<r9**r91-8++11<&*5-%<<5-<-g+&--%%1*r9*&+d%1*%5",
"r%:r1w*5ry5y->+8r=aw-%>&:%=+*8>79%=5-0:>&*%Xae%=w9&&*:%y%+*:&&5-",
"=%*r+5851-1fr4=7999%-;yi7-0.%%-*=t5&5e>ee&8=w9=5*=%+*=:%d97*9:=:",
"9*&yd:&9e8+<d2-;&1*X4;5qy%>&r**e07e&=&7t9%*<rX&r=e+5**=&a9>%51a;",
"*>1%w&r:9=9<rey;w-58w*5=427a%=y&%*==q1rr<dr=d%54h5=>ew9&>&=7=r&=",
"%-y%=-1y-+e8&d9&.r&&r7O>%%-0-8:->-Or&%>:ea9-:*<&-&-t=<-*1<=e****",
"q8e&*w>e*1:&=*+4r*%4*g&1g<a1*=w7;%Xa%:=>rge:*=e%9*y%we*-9-y%*>er",
"9*%%>=%=0d9a-&8:-=9%=1r=y<=%9>++=&1=1;y1$7>#d0*=:=>%9d=>a%r-9%e6",
"%dd7%>1>0e-*e+;1a=%+*;r5*>**rr-58rtqgq.r<y01d&1e*5r0=9--1<y-%&%:",
"+>81r79e=94%iew*q<%9&e:15:e%1%r=&==6;da==&r-rr5&45%:79=91r&e5u*5",
"+*%<1qyw81-+*%y%X9=<d*94>5%a=:==e*;%1:<1e&>&1y<re>r>r&aywh:9q:e:",
"9=1%%q>>>1%1y<77%=91>95dw8:57r&$=-+1%;%1%der&<191&**%*;>1r-e%&14",
"=*a*5=->7q7t;+ea:=4<*-$19ye%+qtyyy-w4y>*=rr*9r*w5%+>e%*%+*54-<-+",
"4+**>**1=%=r+*a:*:+%<w9:&q-:%=e1<>eee;&eew9&&7*war=+%&1=82-eer%:",
"=-;1*>**r9%+9&4>&-*<rat0-%*%5%&&%y:<eX*<<r-%9e%8>9*ygw*%0+8g<*>1",
"%><+1g->w>:*-5r%%*&5*1+rr**&+*8rf<a+:1,y1*-*11%%*-X*yr+=9*%-y$5&",
"71#=%y<0719e9==*=1<e$r&-rwi&r9:t=81y%*1r*X=9+9i&%5ae984w#q<%&*5=",
"**=9rs0%->&@4>-949d9%f&*9>r-Orde>>red;<<yrdq*=e91&-:*=#+=&=<*&=1",
"&&r&&=*-*e%9>e%=d*1>da*e=:e>9gy&1<1&1&7=d1r%-e>eq*55%*==>1%9w*><",
"5>4#e*&X1>*94-&%%y+:>y**er8#a>%&1&<=dg&=*>a&9&8r<y@-y>%9-<:<<-<=",
"8*->=&4=a9:%*4=2>er47&X.>q#r9e:>&4r*-*e+&1dw-8=9%1%e%a1174y:1<04",
"6er%=a:01%q=1-y&=+-t*t=#%;%e-9#d1%=<14*&r=r2=1r:9:1<e1*<*r1*w*se",
"8=-=5r%+e**9e%>&r9;1re%ee8-9&-e=y0&&&&8d<&+9-5*r+-a4i49%:r&rew9r",
"ry%9-<+i&r+$*&%557-%q&+y&+*e%8:w91%<1a9&<e959+*:%%t9**%=-er>-&<=",
"5159=<%%5d***7X5>1y9%<1*&19ta*=41=ddae4-e88+-=:7e:*r5ye5r9y*-a:5",
"%9re*a99::9a->y-%5y*$1%:9<y85r*-<4*%%#>><=*9rX1wa&%9&%9=r=d=:e*%",
"w>11Xerey+;;e9+--fr%8w*X4f**5*%99*&%+-d>&-5%<r1%y7q>>+7*-%-%+%>9",
"&r51re&55&*=r;**:;:5>e&%=-y%wryt=9=y<96=9y%wd+e1*+%1%%ey7=8r8+r>",
"=e4*>a;**ie***1+99eu9%e8=&9*1*&4=<9w1>*-r999r%1;1%=;q5r*=awr-7<-",
"e+51yy+*58+w%**e:..+1=r+>9y=-y&=:i>&e%9=w#o1rga%ywqe:e95%r1e<8=d",
"r--#9e11%=ye*9=<-->*=>>55&1*&%+%%+=>wr&9*:<>00%5-e5>+X1&+-%-*1$*",
"r5-X&<+r1>4*d&;O%wrOe-e&:1e>9=%->%11y=;.a=*9-fd05=-&1 5*>=e&01=1",
"=*&=+<*e8e*:&=1e-8>4*59+-=<y1r:*e*w.=-=e=a%1*5<e<91e-&r=49=ey45*",
"ra35q+&+->&;&aeq1r9=%&d=0r1-r=8;>r5y9a59<*5-%%<*&r&yyr:yw*1=d:&%"
};
