/* XPM */
static char *_908ef0118ab4a25f0634155225f1e78M3fEkNCWkFImLcbM[] = {
/* columns rows colors chars-per-pixel */
"64 64 157 2 ",
"   c #000000",
".  c #090506",
"X  c #0D080A",
"o  c #1B070E",
"O  c #140C0E",
"+  c #1D080F",
"@  c #061401",
"#  c #091402",
"$  c #0A1E01",
"%  c #180E11",
"&  c #1C1014",
"*  c #200911",
"=  c #2A0B16",
"-  c #300D19",
";  c #221419",
":  c #231818",
">  c #0A2301",
",  c #0C2B01",
"<  c #112E03",
"1  c #0F3502",
"2  c #0F3B02",
"3  c #133603",
"4  c #143C03",
"5  c #19300A",
"6  c #262D11",
"7  c #3F221E",
"8  c #3A3A1A",
"9  c #2C1A20",
"0  c #321E25",
"q  c #362027",
"w  c #3D242C",
"e  c #451324",
"r  c #4C1527",
"t  c #53162B",
"y  c #58182E",
"u  c #5C1930",
"i  c #671C35",
"p  c #6B1D37",
"a  c #472A34",
"s  c #56323E",
"d  c #642439",
"f  c #722E39",
"g  c #0E4201",
"h  c #0D4F01",
"j  c #144503",
"k  c #174903",
"l  c #1B4804",
"z  c #155403",
"x  c #195404",
"c  c #125B02",
"v  c #1C5A04",
"b  c #215606",
"n  c #225B05",
"m  c #294113",
"M  c #285810",
"N  c #176702",
"B  c #1C6304",
"V  c #1B6B04",
"C  c #226D05",
"Z  c #266309",
"A  c #257105",
"S  c #2A7B06",
"D  c #5A3441",
"F  c #623947",
"G  c #6B3F4D",
"H  c #6E414F",
"J  c #6F4150",
"K  c #714353",
"L  c #7E4B5B",
"P  c #99294F",
"I  c #A82D57",
"U  c #BD3362",
"Y  c #C13464",
"T  c #CC3769",
"R  c #DA3B71",
"E  c #E53E77",
"W  c #865061",
"Q  c #895064",
"!  c #8A5962",
"~  c #93566A",
"^  c #98596F",
"/  c #9A5A70",
"(  c #AD667E",
")  c #EC407A",
"_  c #0E8E00",
"`  c #178D02",
"'  c #1C8D03",
"]  c #159201",
"[  c #1E9203",
"{  c #1E9902",
"}  c #258305",
"|  c #298506",
" . c #228C04",
".. c #2C8B06",
"X. c #2F8409",
"o. c #318009",
"O. c #338A09",
"+. c #249404",
"@. c #2A9606",
"#. c #249B04",
"$. c #2C9B06",
"%. c #2E9608",
"&. c #2F9A08",
"*. c #319C07",
"=. c #379209",
"-. c #3C950B",
";. c #349C08",
":. c #3A9E0A",
">. c #1DA903",
",. c #24A204",
"<. c #2CA206",
"1. c #2AA606",
"2. c #24AA03",
"3. c #2FAA06",
"4. c #31A207",
"5. c #31A607",
"6. c #39A407",
"7. c #33AA07",
"8. c #35A907",
"9. c #38A807",
"0. c #35A108",
"q. c #35A308",
"w. c #31A408",
"e. c #36A509",
"r. c #3AA109",
"t. c #3EA10A",
"y. c #3CA30A",
"u. c #3AA509",
"i. c #35AA08",
"p. c #3AA909",
"a. c #3BAB09",
"s. c #3EA90A",
"d. c #34B007",
"f. c #3AB208",
"g. c #419F0C",
"h. c #42A40B",
"j. c #48A60D",
"k. c #43AC0B",
"l. c #4BAD0D",
"z. c #45B20C",
"x. c #53B10F",
"c. c #B36982",
"v. c #BA6D87",
"b. c #BE6F8A",
"n. c #C1718C",
"m. c #CD7894",
"M. c #D07A97",
"N. c #D47C9A",
"B. c #D87F9D",
"V. c #F06694",
"C. c #F27FA6",
"Z. c #DC819F",
"A. c #DD82A0",
"S. c #ED8BAC",
"D. c #F386AB",
"F. c #F38CAE",
"G. c #F48FB1",
/* pixels */
":.&.+.0.#.#.$.1.@.:.0.7.a.r.<.w.#.$.@.[ 5.@.@.;.,.r.,.+.;.+.+.@.+.t.0.*.w.#.u.+.%.+.:.#.@.#.,.5.#.=.&.e.r.@.a.:.t.#.6. .;.%.<.[ ",
"+.<.%.t.+.@.#.u.9.0.4.@.@.r.&.{ d.@.;.;.7.w.$.1.[ &.&.#.+.@.[ +.+.<.l.g.e.+.;.r.;.#.@.#.a.,.<.#.;.#.;.;.9.&.] :.;.@.7.;.*.#.&.4.",
"@.;.#.@.8.r.8.,.@.#.$.;.7.@.@.w.@.<.w.#.7.8.;.+.+.;.4.' r.8.@.&.@.;.r.8.z.@.a.&.j.+.x.&.#.&.a.#.&.f.[ #.6.y.#.&.$.6.0.;.h.@.0.:.",
"+.7.] @.:.#.t.<.+.<.A               *.;.@.z                                   2 ;.w.w.+.+.0.*.@.w.#.#.@.*.:.+.,.7.,.+.@.0.k.6.[ ",
"i.f.r.@.<.#.#.` @.4.V               7.a.&.x                                   4 :.e.&.,.e.@.;.r.u.;.u.@.#.u.4.:.0.{ @.:.<.;.%. .",
"$.9.:.{ ;.t.$.#.@.<.A               #.r.+.x                                   4 w.#.0.r.9.:.&.&.&.1.:.[ a.j.8.k.[ 5.<.<.;.+.<.$.",
"a.6.&.k.@.z.$.} O...Z ; ; ; ; ; ; : } O.| M ; ; ; ; ; ; ; ; ; ; ; ; ; ; ; ; ; m | O.} X...| | u.@.&.@.$.a.w.%.a.#.:.$.8.5.+.;.&.",
"a.+.{ ;.&.@.a.      a G.G.G.G.G.G.S.      K G.G.G.G.G.G.G.G.G.G.G.G.G.G.G.G.G.^             @ @.:.t.:.@.{ #.+.:.#.@.@.e.$.+.*.#.",
"3.@.;.@.#.@.&.      a G.G.G.G.G.G.S.      K G.G.G.G.G.G.G.G.G.G.G.G.G.G.G.G.G.^             # w.;.+.;.+.@.<.4.@.[ 4.<.u.[ @.a.,.",
"#.@.{ <.&.:.<.      a G.G.G.G.G.G.S.      J G.G.G.G.G.G.G.G.G.G.G.G.G.G.G.G.G./             @ ;.;.:.{ ;.<.#.@.$.#.5.@.%.w.6.5.@.",
"#.*.*.g k 2 j W Q Q ( G.G.G.~ H G G Q Q Q v.G.G.G.G.G.G.G.G.G.G.G.G.G.G.G.G.G.m.Q Q Q Q W Q L l j j S @.@.@.;.a.k.#.r.0.a.a.<.+.",
"e.k.a.        S.G.G.F.G.G.F.a     . G.G.G.G.G.G.G.G.G.G.G.G.G.G.G.G.G.G.G.G.G.G.G.G.G.G.G.S.Z.      x e.3.<.#.@.:.7.w.<.;.<.8.:.",
":.<.:.        S.G.G.G.G.G.G.a     . G.G.G.G.G.G.G.G.G.G.G.G.G.G.G.G.G.G.G.G.G.G.G.G.G.G.G.G.B.      b ;.+.<.9.*.@.#.6.<.<.@.@.:.",
",.<.]         S.G.G.G.G.G.G.a     . G.G.G.G.G.G.G.G.G.G.G.G.G.G.G.G.G.G.G.G.G.G.G.G.G.G.G.G.Z.      h &.#.f.+.@.3.<.5.$.&.a.&.#.",
"u.+.:.        S.G.G.G.G.G.G.F.S.G.G.G.G.G.G.G.G.G.& .   q G.G.G.D   .   G.G.G.G.G.G.G.G.G.G.G.F.S.G.H       @.4.<.*.+.;.h.,.,.,.",
"@.#.$.        S.G.G.G.G.G.G.G.G.G.G.G.G.G.G.G.G.G.&     0 G.G.G.D       G.G.G.G.G.G.G.G.G.G.G.G.G.G.J       :.$.+.7.{ 1.8.&.r.8.",
"+.:.+.        S.G.G.G.G.G.G.G.G.G.G.G.G.G.G.G.G.G.;     0 G.G.G.D       G.G.G.G.G.G.G.G.G.G.G.G.G.G.K       e.#.+.e.<.+.$.;.;.<.",
"+.$.:.        S.G.G.G.G.G.G.G.G.G.G.G.G.G.G.G.G.G.%     0 G.G.G.D       G.G.G.G.G.G.G.G.G.G.G.G.G.G.J       @.@.$.:.+.+.%.h.;.:.",
"7.{ #.        S.G.G.G.G.G.G.G.G.G.G.G.G.G.G.G.G.G.&     0 G.G.G.D       G.G.G.G.G.G.G.G.G.G.G.G.G.G.J       %.u.] r.k.t.$.5.:.$.",
"{ +.+.        S.G.G.G.G.G.G.G.G.G.G.G.G.G.G.G.G.G.&     0 G.G.G.D       G.G.G.G.G.G.G.G.G.G.G.G.G.G.J       ;.;.%.*.<.$.y.$.*.0.",
"@.+.k.        S.G.G.G.G.G.G.G.G.G.G.G.G.G.G.G.G.G.&     0 G.G.G.D       G.G.G.G.G.G.G.G.G.G.G.G.G.G.J       +.@.;.$.;.;.$.@.%.6.",
"+.r.<.        S.G.G.G.G.G.G.G.G.G.G.G.G.G.G.G.G.G.%     0 G.G.G.D       G.G.G.G.G.G.G.G.G.G.G.G.G.G.M.c.c.c.< , , k *.:.0.k.4.$.",
"k.i.#.        S.G.G.G.G.G.G.G.G.G.G.G.G.G.G.G.G.G.&     0 G.G.G.D       G.G.G.G.G.G.G.G.G.G.G.G.G.G.G.G.G.G..     , k.u.7.z.y.;.",
"f.@.<.        S.G.G.G.G.G.G.G.G.G.G.G.G.G.G.G.G.G.&     0 G.G.G.D       G.G.G.G.G.G.G.G.G.G.G.G.G.G.G.G.G.G..     < a.r.,.i.a.+.",
"@.&.@.        S.G.G.G.G.G.G.G.G.G.G.F.F.G.G.D.G.G.- O O w G.G.G.F X X X F.F.F.F.F.F.F.G.G.G.G.G.G.G.G.G.G.G.O X X 5 #.-. .0.$.@.",
";.;.@.        S.G.G.G.G.G.G.G.G.G.G.) E ) ) E ) E D.G.G.G.G.G.G.G.G.G.G.) ) ) E ) ) E C.G.G.G.G.G.G.G.G.G.G.G.G.G.(       :.;.a.",
"u.a.<.        S.G.G.G.G.G.G.G.G.G.F.) ) ) ) ) E E D.G.G.G.G.G.G.G.G.G.G.) ) ) ) ) ) ) C.G.G.G.G.G.G.G.G.G.G.G.G.G.(       *.+.%.",
"@.&.&.        S.G.G.G.G.G.G.G.G.G.G.) ) ) ) ) E E D.G.G.G.G.G.G.G.G.G.G.) ) ) ) ) ) ) C.G.G.G.G.G.G.G.G.G.G.G.G.G.(       #.i.@.",
"@.;.&.        S.G.G.G.G.G.G.G.G.G.G.V.V.V.V.V.V.V.G.G.G.C.L L L m.G.G.G.V.V.V.V.V.V.V.D.G.G.G.G.G.G.G.G.G.G.G.G.G.(       :.4.r.",
"5.r.a.        S.G.G.G.G.G.G.G.G.G.G.G.G.G.G.G.G.G.G.G.G.n.      / G.G.G.G.G.G.G.G.G.G.G.G.G.G.G.G.G.G.G.G.G.G.G.G.(       ;.+.;.",
"t.j.r.        S.G.G.G.G.G.G.G.G.G.G.G.G.G.G.G.G.G.G.G.G.n.      / G.G.G.G.G.G.G.G.G.G.G.G.G.G.G.G.G.G.G.G.G.G.G.G.(       #.{ &.",
"t.@.&.        S.G.G.G.G.G.G.G.G.G.G.G.G.G.G.G.G.G.G.G.G.n.      / G.G.G.G.G.G.G.G.G.G.G.G.G.G.G.G.G.G.G.G.G.G.G.G.(       @.<.$.",
"<.+.#.=.' +.@.& % % D G.G.G.G.G.G.G.G.G.G.G.G.G.G.G.G.G.n.      / G.G.G.G.G.G.G.G.G.G.G.G.G.G.G.G.G.G.G.G.G.G.G.G.(       ;.@.;.",
"4.#.@.8.j.;.$.      a G.G.G.G.G.G.G.G.G.G.G.G.G.G.G.G.G.n.      / G.G.G.G.G.G.G.G.G.G.G.G.G.G.G.G.G.G.G.G.G.G.G.G.(       :.h.@.",
"+.;.:.@.8.+.a.      a G.G.G.G.G.G.G.G.G.G.G.G.G.G.G.G.G.n.      / G.G.G.G.G.G.G.G.G.G.G.G.G.G.G.G.G.G.G.G.G.G.G.G.(       :.@.$.",
"#.@.6.@.&.%.r.      a G.G.G.G.G.G.G.G.G.G.G.G.G.G.G.G.G.m.q q 0 ( G.G.G.G.G.G.G.G.G.G.G.G.G.S.n.b.b.b.b.b.b.b.b.b.! > > > #.#.#.",
"5.5.:.+.#.a.*.      a G.G.G.G.G.G.G.G.G.G.G.G.G.G.G.G.G.G.G.G.G.G.G.G.G.G.G.G.G.G.G.G.G.G.G.B.                    , a.+.#.@.e.0.",
"0.,.+.+.4.@.+.      a G.G.G.G.G.G.G.G.G.G.G.G.G.G.G.G.G.G.G.G.G.G.G.G.G.G.G.G.G.G.G.G.G.G.G.B.                    , t.&.4.@.e.2.",
"[ k.k.7.{ ;.0.      a G.G.G.G.G.G.G.G.G.G.G.G.G.G.G.G.G.G.G.G.G.G.G.G.G.G.G.G.G.G.G.G.G.G.G.B.                    , h.@.[ @.+.;.",
"{ *.<.:.:.3.a.      a G.G.G.G.G.G.G.G.G.G.G.G.G.G.G.G.G.G.G.G.G.G.G.G.G.G.G.G.G.G.G.G.K s s D P P P P P P P P P P f 1 3 4 i.#.<.",
"] @.+.:.;.9.f.      a G.G.G.G.G.G.G.G.G.G.G.G.G.G.G.G.G.G.G.G.G.G.G.G.G.G.G.G.G.G.G.G.0     + ) ) ) ) ) ) ) ) ) ) I       ;.w.;.",
"9.&.;.#.+.5.$..     a G.G.G.G.G.G.G.G.G.G.G.G.G.G.G.G.G.G.G.G.G.G.G.G.G.G.G.G.G.G.G.F.0     + ) ) ) ) ) ) ) ) ) ) I       @.r.#.",
"#.#.k.#.<.&.;.      a G.G.G.G.G.G.G.G.G.G.G.G.G.G.G.G.G.G.G.G.G.G.G.G.G.G.G.G.G.G.G.F.0     + ) ) ) ) ) ) ) ) ) ) I       ;.%.[ ",
"&.] +.$.&.#.#.:.&.#.C       ( G.G.G.G.G.G.G.G.G.G.G.G.G.G.G.G.G.G.G.G.G.G.G.G.^       U ) ) ) ) ) ) ) ) ) ) ) ) ) I       u.+.%.",
"&.@.&.;.{ *.#.$.u.9.N       ( G.G.G.G.G.G.G.G.G.G.G.G.G.G.G.G.G.G.G.G.G.G.G.G./       U ) ) ) ) ) ) ) ) ) ) ) ) ) I       #.*.:.",
"#.;.;.+.:.z.@.*.8.&.C       c.G.G.G.G.G.G.G.G.G.G.G.G.G.G.G.G.G.G.G.G.G.G.G.G./       U ) ) ) ) ) ) ) ) ) ) ) ) ) I       +.<.@.",
"1.:.{ $.+.a.;.9.3.:.A       G ~ ~ ^ G.G.G.G.G.G.G.G.G.G.G.G.G.G.G.G.G.G.G.G.G./       U ) ) ) ) ) ) ) ) ) ) ) ) ) I       #.$.;.",
"#.#.$.0.r.j.9.+.%.*.V             . G.G.G.G.G.G.G.G.G.G.G.G.G.G.G.G.G.G.G.G.G./       U ) ) ) ) ) ) ) ) ) ) ) ) ) I       @.%.w.",
"@.@.t.@.@.$.#.@.#.9.V             . G.G.G.G.G.G.G.G.G.G.G.G.G.G.G.G.G.G.G.G.G.^       U ) ) ) ) ) ) ) ) ) ) ) ) ) I       { *.:.",
"<.*.,.{ e.@.@.' :.*.V             . G.G.G.G.G.G.G.G.G.G.G.G.G.G.G.G.G.G.G.G.G.^       U ) ) ) ) ) ) ) ) ) ) ) ) ) I       &.;.&.",
"<.#.@.:.#.@.$.$ $ $ 7 Y Y Y Y Y Y U 9 9 9 9 9 9 9 Z.G.G.G.G.G.G.G.G.G.G.9 9 9 d Y Y Y E ) ) ) ) ) ) ) ) ) ) - = = 6 O.S o.:.u.2.",
"2.0.t.{ @.h.;.      e E ) ) ) ) ) E               Z.G.G.G.G.G.G.G.G.G.G.      y ) ) ) ) ) ) ) ) ) ) ) ) ) )       < r.@.7.#.h.*.",
"<.$.@.&.,.t.+.      e ) ) ) ) ) ) E               B.G.G.G.G.G.G.G.G.G.G.      y ) ) ) ) ) ) ) ) ) ) ) ) ) ) .     < @.6.0.a.4.u.",
"u.a.+...} ..` * * * u ) ) ) ) ) ) E * * * * * * * b.N.N.N.N.N.N.N.N.M.N.      r T T T E ) ) ) ) ) ) R T T T # @ @ 4 r.&.@.&.:.@.",
"<.:.7.        E ) ) ) ) ) ) ) ) ) ) ) ) ) ) ) ) E o                                   U ) ) ) ) ) ) p       :.<.:.w.k.#.@.t.&.$.",
"#.*.r.        E ) ) ) ) ) ) ) ) ) ) ) ) ) ) ) ) ) o                                   U ) ) ) ) ) ) p       *.#.r.<.k.$.;.0.#.#.",
"a.w.:.        E ) ) ) ) ) ) ) ) ) ) ) ) ) ) ) ) E o                                   U ) ) ) ) ) E p       7.#.%.+.;.@.[ @.;.w.",
"#.:.w.v n v x d i p i i i i i i i p i i i i i i p .     @ n Z B z v x n v v c 1       t i i i i p p 8 v z z e.6.3.&.<.r.<.] t.;.",
"%.;.,.@.w.j.<.                                          $ @.@.,.;.0.;.f.:.&.#.B                     z *.7.&.r.#.&.t.8.9.;.1.$.@.",
"9.{ <.:.9.9.+.                                          > a.@.*.@.f.*.@.9.@.;.B                     v 0.;.<.w.$.+.u.6.:.;.<.$.k.",
"r.@.@.#.5.0.;.                                          $ #.{ +.#.[ &.*.5.r.@.V                     x 4.' ' :.$.+.@.+.%.@.;.+.$.",
":.<.@.' @.;.[ h.:.;.,.@.k.@.&.] +.a.t.] r.@.0.@.;.:.0.e.*.,. .%.&.+.:.:.a.&.@.' t.@.@.3.@.l.k.0.<.<.%.@.:._ <.#.*.$.;.#.6.:.#.;.",
"$.#.@.*.' ;.{ :.<.4.#.;.@.@.:.w.@.<.4.#.$.<.8.' @.&.:.a.;.t.;.{ 0.#.8.` &.@.&.9.$.t. .6.#.7.;.8.;.4.:.0.$.@.t.*.$.7.$.4.u.<.;.$.",
"e.h.>.<.7.{ @.' ;.w.@.<.@.h.w.9.t.r.4.$.+.#.a.@.a.:.:.@.t.*.&.;.*.6.<.a.5.h.<.<.:.,.4.%.+.+.;.#.@.t.$.a.a.e.&.i.8.#.:.$.k.*.#.+."
};
