/* XPM */
static char *d17abd92442243479e9cba3a30b24b5ePVcvk64PPmDjwtlT[] = {
/* columns rows colors chars-per-pixel */
"64 64 169 2 ",
"   c black",
".  c #0D0B00",
"X  c #171601",
"o  c #262601",
"O  c #2D2D01",
"+  c #774700",
"@  c #7B4B00",
"#  c #6E5601",
"$  c #715601",
"%  c #7E5000",
"&  c #765C02",
"*  c #547104",
"=  c #7A6E04",
"-  c #657A06",
";  c #7F7306",
":  c #835201",
">  c #8C5702",
",  c #8D5F01",
"<  c #905C03",
"1  c #8D6101",
"2  c #996304",
"3  c #AC7407",
"4  c #A17E08",
"5  c #AD7C08",
"6  c #B47B08",
"7  c #0E8E00",
"8  c #158D01",
"9  c #1B8E03",
"0  c #159201",
"q  c #1D9203",
"w  c #1D9A02",
"e  c #2D8603",
"r  c #208F04",
"t  c #2F8803",
"y  c #348B04",
"u  c #3A8D06",
"i  c #249404",
"p  c #2A9606",
"a  c #249B04",
"s  c #2C9B06",
"d  c #2E9608",
"f  c #2F9A08",
"g  c #339305",
"h  c #3B9306",
"j  c #319C07",
"k  c #3C9805",
"l  c #349608",
"z  c #349C08",
"x  c #3A9E0A",
"c  c #1DA002",
"v  c #1DA903",
"b  c #24A204",
"n  c #2EA107",
"m  c #2CA206",
"M  c #24AA03",
"N  c #2DA906",
"B  c #2FA408",
"V  c #31A207",
"C  c #32A307",
"Z  c #31A607",
"A  c #3AA407",
"S  c #33AA07",
"D  c #35A907",
"F  c #3AAA07",
"G  c #35A108",
"H  c #34A308",
"J  c #36A509",
"K  c #3AA109",
"L  c #3BA30A",
"P  c #3EA20B",
"I  c #3AA509",
"U  c #33AA08",
"Y  c #35AA08",
"T  c #3AA909",
"R  c #3CAB09",
"E  c #39AC09",
"W  c #34B007",
"Q  c #3CB209",
"!  c #418F07",
"~  c #439507",
"^  c #4B9707",
"/  c #439A07",
"(  c #449409",
")  c #4A940A",
"_  c #439D0A",
"`  c #4B9B0A",
"'  c #6B8806",
"]  c #748B08",
"[  c #7A930A",
"{  c #48A107",
"}  c #42A40B",
"|  c #48A60D",
" . c #43AB0B",
".. c #4AAB0D",
"X. c #55A40B",
"o. c #44B20B",
"O. c #49B10D",
"+. c #45BB0C",
"@. c #53B10F",
"#. c #9E8108",
"$. c #A38108",
"%. c #BA810A",
"&. c #BE8A08",
"*. c #B69204",
"=. c #B89304",
"-. c #BB8F1A",
";. c #BC8F2B",
":. c #C08509",
">. c #C08F08",
",. c #C29208",
"<. c #DE970E",
"1. c #C08F1A",
"2. c #E69F0F",
"3. c #D2BD07",
"4. c #EBA30F",
"5. c #F0AC0F",
"6. c #EEB00E",
"7. c #F1B20F",
"8. c #EFA510",
"9. c #EFA810",
"0. c #F0A910",
"q. c #C08F2D",
"w. c #C4952B",
"e. c #D9D907",
"r. c #E4C607",
"t. c #E4C807",
"y. c #ECCE08",
"u. c #F3C20C",
"i. c #F4CF0C",
"p. c #EED109",
"a. c #F6D50A",
"s. c #F7DE08",
"d. c #F6DF1A",
"f. c #EBE407",
"g. c #F7E008",
"h. c #F8E308",
"j. c #F4EB08",
"k. c #FBEE08",
"l. c #FDF209",
"z. c #FFFF08",
"x. c #F6E01B",
"c. c #F8E31A",
"v. c #FFFE11",
"b. c #FFFF1B",
"n. c #FFFF2C",
"m. c #FBEF47",
"M. c #FAED49",
"N. c #FFFF45",
"B. c #F1E86E",
"V. c #FBF66E",
"C. c #FEFD6F",
"Z. c #F4EB72",
"A. c #FFFE72",
"S. c #FFFD7D",
"D. c #D7BC81",
"F. c #DABD85",
"G. c #DDC180",
"H. c #FFFE83",
"J. c #FFFF88",
"K. c #FFFE95",
"L. c #FEFDD3",
"P. c #FFFFDA",
"I. c #FBF7E7",
"U. c #FDFBE5",
"Y. c #F8F3E8",
"T. c #FFFFED",
"R. c #FBF7F0",
"E. c #FDFCF6",
"W. c white",
/* pixels */
"x j i G a a m m p K G J E K m B a m d q C f s j b K b i l i q s i L x B z a I p f i P a p i b Y a d l G I p L x K a x i d d m q ",
"i m f x i p a I I C C p p K s w W p j j S C s m i f j w i f q i p s ..I J q j K j w p a E v m i z a G j C s 0 } d s Z z z a p C ",
"p x i s D K E a p s a j U i s x p s j a Z D j i i j j q I Y p s p z x Y o.p E s | i @.p i m R a f Q i a J  .a f s E G j } d G K ",
"i N 9 p K i K Z i m G E a p p P j x C j a f f a p E s U s O.w B s Q p  .j j K s K B G p p z j s G a w p s x p b Y b i f G E x i ",
"S Q K p m a i 8 p C a } a K j p j s Z R s d d s s s U s J P f f K j | m p x s Y x Z m a G f z x I z P p a I j x J w p x C j d r ",
"s D x w z I a a p s x i E z a G E G i K p d j p C j q p z #.5 6 6 6 5 5 { G m j G a P G K x s j s N z q E ..Y  .q Z m m j i m f ",
"W A s  .d R s p I Z j N p i K j C E s G j Y s C J R W j z $.6 6 6 6 6 6 h p j K s x d z J p s I s f d f E z j R a x m I Z p j j ",
"R i i x s s  .m I j a w z x J K N S J a m a s S G j G z P $.6 6 6 6 6 6 X.Y Y p x p Y s I U o.s z _ z p w a i x i p i K a i s p ",
"N p j p i f p s x K i d a  .w s m j m o.w f p m S C p K p 4 6 6 6 6 6 6 X.a p s q j ..C m I } J j i z q l s G p i B m I q a E b ",
"a p w s p x B } p z } i s p j z p x U s s f a m i ] 5 6 6 t.s.s.s.s.a.s.&.6 5 ` p m { G j p j s z x w j m w s m a U p d C K C p ",
"a j s a Z i j K b G O.J s x i i j p 0 p b p P s z ] 5 6 6 y.s.s.s.s.s.s.>.6 6 y G x K G j f z E p m I s j p j R E a P J R E m i ",
"Y  .E x ..J f a r x a x j N z x Q a p p d s s A m [ 5 6 6 y.s.s.s.s.s.s.&.6 6 h K i K m f a a p Z j j J N s i p x Y z m j m R G ",
"x Z x z I G } i G s Y I p j E w m G E x j d m s z ' 5 6 6 j.z.z.z.z.z.z.&.6 6 h p i K p w s p i f p _ z q m Z z p i J m z p p G ",
"b s 0 f a R B s p p  .a q x l P s 0 P m m R s p z ' 6 6 6 j.z.z.z.z.z.z.>.6 6 t j C m b J i i j b  .0 s a Q i s N m Y m s R s p ",
"J i x  .d f J s j G G x } C a b a p w p G 0 D m i ] 5 6 6 j.z.z.z.z.z.z.>.6 6 ~ C +.9 x j x R x m i R p a i s Z N j i j } m b b ",
"p a s p s x a s d s p i  .s Q P p q x x J S z } a [ 5 6 6 j.z.z.z.z.z.z.>.6 6 { j 0 C C a x K C s s m s x K } p i C w m J s J J ",
"i x i s j z } j Y p } Q  .E L x x i j w i A 4 5 6 D.Y.E.E.n.z.z.z.z.z.z.L.E.E.;.6 5 6 ~ p s J 0 f i p j q s S b q P s q a z z b ",
"i s x s s s w p W j J J G z a K p s C G x a $.6 6 F.I.W.W.n.z.z.z.z.z.z.P.W.W.q.6 6 6 ^ a x p b  .m p w E C s i s x p p j { z x ",
"U w a G s i p a a p a p x m I C p Z x p } b $.6 6 F.R.W.W.n.z.z.z.z.z.z.P.W.W.;.6 6 6 ~ } S s p U w d j z P p E q I  .I s C x s ",
"w p 9 U s l s w p a i a I x x j i j j z } { $.%.%.G.I.E.E.n.z.z.z.z.z.z.L.E.E.w.%.%.%.^ p a } l k a s p a m x J d j m s R s j G ",
"p q  .I x p I m J J b q p z p #.6 6 5 6 6 6 t.s.s.M.S.J.H.b.z.z.z.z.z.z.A.J.J.x.s.s.s.&.6 5 6 6 6 / p w q } p p f p J j p p f K ",
"p K m b s z j j L p L G s p E 4 6 6 6 6 6 6 y.s.s.m.S.H.H.b.z.z.z.z.z.z.A.H.H.c.s.s.s.&.6 6 6 6 6 y O.p p } G a a z z G G  .G p ",
"E E a j p b G m i Y G I m C p $.6 6 6 6 6 6 y.s.s.m.H.H.H.b.z.z.z.z.z.z.A.H.H.c.s.s.s.&.6 6 6 6 6 k G p Y q s a a I  .I U o.R s ",
"Q d m K E # @ @ 3 6 5 6 5 6 6 B.S.H.H.I.E.E.J.S.H.N.v.v.z.z.z.z.z.z.z.z.v.z.z.A.S.S.S.U.E.R.K.H.H.-.5 6 5 6 6 5 % @ @ @ g E L i ",
"p j f q C # + + 3 6 6 6 6 6 6 Z.H.H.H.T.W.W.K.H.H.N.v.z.z.z.z.z.z.z.z.z.z.z.z.C.H.H.H.T.W.W.K.J.H.1.6 6 6 6 6 6 : @ @ @ y j s i ",
"j j p U B $ @ @ 3 6 6 6 6 6 6 Z.H.H.H.T.W.W.K.H.H.N.v.z.z.z.z.z.z.z.z.z.z.z.z.C.H.J.J.T.W.W.K.H.H.1.6 6 6 6 6 6 : @ + @ h K x E ",
"J I m x d # @ @ 3 6 6 6 3 6 6 Z.H.J.H.R.W.W.K.H.H.N.v.z.z.z.z.z.z.z.z.z.z.z.z.A.J.J.H.R.W.W.K.J.H.1.3 6 6 6 6 6 : @ + @ y B i p ",
"j p j a J $ @ + r.s.s.s.V.H.S.b.v.z.z.v.v.b.h.g.s.; X . . e.z.z.z.z.z.z.O .   r.s.s.s.v.v.v.z.z.z.V.H.H.H.x.s.s.1 @ @ @ ` i J j ",
"s f f j p # @ @ r.s.s.s.A.H.H.b.z.z.z.z.z.z.h.s.s.= X     e.z.z.z.z.z.z.o     3.s.s.s.z.z.z.z.z.z.A.H.H.H.c.s.s.1 @ @ @ ) x C P ",
"G K E p x # + + r.s.s.s.V.H.H.n.z.z.z.z.z.z.g.s.s.= .     e.z.z.z.z.z.z.o     3.s.s.s.z.z.z.z.z.z.A.H.H.H.x.s.s.1 + @ + u j i p ",
"I | P m s I z x & : : : 6 6 %.y.s.g.g.z.z.z.g.s.s.= .     e.z.z.z.z.z.z.o     3.s.s.a.z.z.z.h.s.s.>.%.6 6 > @ : u i | p x p i B ",
"P i f K z R s m $ @ + + 3 6 6 i.s.s.s.z.z.z.g.s.s.= .     e.z.z.z.z.z.z.o     3.s.s.s.z.z.z.h.s.s.>.6 6 6 : @ @ y 9 q f p a G s ",
"p p p P q m m m $ + @ @ 3 6 6 y.s.s.s.z.z.z.h.s.s.= .     e.z.z.z.z.z.z.o     3.s.s.s.l.z.z.h.s.s.>.6 6 6 : : @ ` s m b C j s z ",
"m a a Y } z p s $ @ @ @ 3 6 6 p.s.s.s.z.z.z.h.s.s.= X     e.z.z.z.z.z.z.o     3.s.s.s.z.z.z.h.h.s.:.6 6 6 : @ + ) I j i m x P d ",
"a K x a E p P j x s z z $ : @ 6 6 6 6 j.z.z.h.s.s.*.% + + f.z.z.z.z.z.z.1 + + t.s.s.s.z.z.z.>.6 6 : @ : @ ( A i C p p N m I p p ",
"w p I p s s x E s q C G $ + @ 3 6 6 6 j.z.z.h.s.s.*.: @ + f.z.z.z.z.z.z.1 @ + t.s.s.s.l.z.z.,.6 6 : @ + @ ( p s x z s J a a w p ",
"Z Z G p a E j D d z j d # + @ 3 6 6 6 k.z.z.g.s.s.=.: + @ f.z.z.z.z.z.z.1 @ @ t.s.s.s.z.z.z.>.6 6 : @ @ @ ( a s J p L i a p J J ",
"G a i i j j p p z  .Z } $ + @ 3 6 6 6 j.z.z.h.g.s.=.: @ @ f.z.z.z.z.z.z.1 % @ t.s.s.s.z.z.z.>.6 6 : @ @ + ` p j | i  .s G p Y b ",
"i }  .N w j z j E G s p K i j $ @ @ : r.s.g.l.z.z.i.9.4.4.k.z.z.z.z.z.z.6.4.4.l.z.z.z.h.s.g.1 @ : ! x k s Z j d z z K s i p i j ",
"w j Z x x N F G p j b i Q G E # @ @ @ r.s.s.z.z.z.a.5.4.8.k.z.z.z.z.z.z.7.8.0.l.z.z.z.h.s.s., @ @ g i z m C p J x J p J m Y a m ",
"w p i x z Y E W G x f q a q } # @ @ @ r.s.s.z.z.z.a.0.8.8.l.z.z.z.z.z.z.7.4.8.k.z.z.z.h.s.s.1 @ @ h G x x s P R E O.j j S j J f ",
"G a z a i S j j s x i x Y x B # @ @ @ t.s.s.z.z.z.z.z.l.z.z.z.z.z.z.z.z.z.z.z.z.z.z.z.h.s.s., @ @ u a w a a s s x x p S i p x s ",
"p a  .a s s j j N U M J s q J $ @ + @ r.s.s.l.z.z.z.z.z.z.z.z.z.z.z.z.z.z.z.z.z.z.z.z.h.s.s.1 @ @ t q j j i p i w f m s p z p q ",
"m 0 i p G a a k j i s x q s P $ @ @ @ r.s.s.z.z.z.z.z.z.z.z.z.z.z.z.z.z.z.z.z.z.z.z.z.h.s.s.1 @ @ ( s i i d x z m w p J J I i l ",
"f s j x w s a s P J i w S p a $ @ @ @ r.s.s.z.z.z.z.z.z.z.z.z.z.z.z.z.z.z.z.z.z.z.z.z.h.s.s.1 + @ h a E o.Q i i K q m o.z b z x ",
"i j z q x O.p C U j j p # @ @ 3 6 3 6 j.z.z.z.z.z.k.g.g.s.s.s.s.g.s.s.g.g.s.s.l.z.z.z.z.z.z.&.6 6 : @ + @ / w a B w p p I q m p ",
"b K i m i E z I N x m G $ + @ 3 6 6 6 j.z.z.z.z.z.k.g.s.s.s.s.s.s.s.s.s.s.s.s.z.z.z.z.z.z.z.>.6 6 : @ @ + k b Y c Z x i s w s s ",
"a a a G I | G p s j p w # @ @ 3 6 6 6 j.z.z.z.z.z.k.g.s.s.s.s.s.s.s.s.s.s.s.s.z.z.z.z.z.z.z.>.6 6 : @ @ + h a q s s p z p p z G ",
"f f P p p p i z p Z p J $ @ @ <.8.8.4.l.z.z.h.g.g.u.5.8.8.< : : @ : @ : 2.5.8.a.s.s.s.z.z.z.7.8.8.> @ @ @ g p s j K p m I i j x ",
"j p b w J p p 0 x s w G # + @ <.8.8.8.l.z.z.h.s.s.u.5.8.8.> + @ @ @ @ @ <.8.8.a.s.s.s.l.z.z.7.8.8.> + @ @ h i m f x s j G s j p ",
"m a s j a d b s | C f q $ @ + 2.8.8.8.l.z.z.g.s.s.u.4.8.8.> @ @ @ + @ + <.4.8.a.s.s.s.z.z.z.7.8.8.> @ @ @ ) x x N a E j x j E b ",
"M J } q s } z L x i U s $ + + <.8.8.8.l.z.z.h.g.s.u.0.8.8.> @ + @ @ @ @ <.8.8.a.s.s.s.z.z.z.7.8.8.> @ @ @ ( i j a L x p Y b } x ",
"m p p s m x p 0 Y p a Z $ @ @ t.s.s.s.5.8.8.:.6 6 2 : @ : u x j E x p p $ : @ 3 6 6 %.4.9.9.a.s.a.1 + @ @ g s p f P s K G R j I ",
"L E i Z s x q Q p I 9 q # + @ t.s.s.s.5.8.8.:.6 6 2 : @ + u s E G k i x $ @ @ 3 6 6 6 2.8.8.a.s.s.1 @ @ + y p a p K K s d s x s ",
"J K m C s z r q m  .p a $ @ @ t.s.s.s.5.8.8.:.6 6 2 : @ @ y m b x p  .} $ @ @ 3 6 6 6 2.8.8.a.s.s.1 @ @ @ / j B K G  .a s L f s ",
"i C E x a } z U j d Z } # @ + t.s.s.s.5.8.8.:.6 6 2 : + @ ~ i d z b a a $ @ @ 3 6 6 6 2.8.8.a.s.s.1 @ @ @ u J s K m  .p z G a i ",
"E z x x q G K G I q m f $ @ @ : : @ : : @ : @ @ @ - g i j a i C C a s i i g | $ @ @ % : @ : : @ : @ @ @ @ e N a f i s i i p f z ",
"a K B G K G s m s p p f $ + @ + @ @ + + @ + @ @ @ * A i E K I Y p Z s I z m b $ @ + @ @ @ + @ @ + + @ @ + y J R N f m I B q } s ",
"d G m p G } s a b Q J a $ @ @ + @ @ @ @ @ + @ + @ * J p G p p b j J C E x j a # @ @ @ + @ @ + + @ @ + @ @ h I a p I E I j N j j ",
"I 0 m G E Y q p m m 0 E i i s x l 9 8 0 x g x i z G R s s E p j p R j p G a C p E i 0 k x ....p K } C x x m z s p I G x z m a  .",
"I s d i C G x x i s E j a Z j j f s j a s j s m s p x i p p w q p q p j J x p Z p j j j A x i m d j m C 9 9 x s q p p d p z i a ",
"K m s 9 a K 0 } x G a s  .p d 0 i I } 0 x f Z f j x C J G a i d s p K x R C p 8 P s p N p ..o.I m m d p x 7 m a j s z a K x s z ",
"m i d s q j i K B B a j p p x G p Z C a a m Z 9 p p j E x L j i G a Y 8 s s s I s } r A a m z G j C x G s d P j m C s C E m m p ",
"J } v s U q p q p G p s s  .G J x K C s i p  .s J } x l L j m f j Y m E J } p S z a C d i i j a d K d E E K s Y Y a x f  .s p i "
};
