/* XPM */
static char *_08edcc672f44f3cd78ad8d3494be134NLeOuYgKWWwhn8DG[] = {
/* columns rows colors chars-per-pixel */
"64 64 172 2 ",
"   c #3C351F",
".  c #3E2723",
"X  c #412925",
"o  c #482F29",
"O  c #4B322C",
"+  c #593C34",
"@  c #18541C",
"#  c #1A5A1D",
"$  c #225B1C",
"%  c #2C5D1A",
"&  c #1E6717",
"*  c #1E6817",
"=  c #1D6119",
"-  c #247D0F",
";  c #21611E",
":  c #2C651F",
">  c #31661D",
",  c #33691E",
"<  c #227712",
"1  c #257912",
"2  c #2E7B15",
"3  c #327B16",
"4  c #317319",
"5  c #1B5E20",
"6  c #205423",
"7  c #295626",
"8  c #27532B",
"9  c #1D6122",
"0  c #236321",
"q  c #256A27",
"w  c #2E6C24",
"e  c #256C29",
"r  c #346C21",
"t  c #27712C",
"y  c #367124",
"u  c #367528",
"i  c #387729",
"p  c #36782C",
"a  c #397A2B",
"s  c #2D7A32",
"d  c #387C30",
"f  c #40771C",
"g  c #42781D",
"h  c #655539",
"j  c #69533D",
"k  c #576B2C",
"l  c #4A7424",
"z  c #557726",
"x  c #5A6130",
"c  c #6D4C41",
"v  c #0E8E00",
"b  c #198507",
"n  c #158D01",
"m  c #1C8E03",
"M  c #1E830A",
"N  c #169201",
"B  c #1D9203",
"V  c #179800",
"C  c #1D9A02",
"Z  c #218F04",
"A  c #23840C",
"S  c #2D860D",
"D  c #268C0C",
"F  c #2C8B0E",
"G  c #358C0F",
"H  c #249404",
"J  c #2A9606",
"K  c #249B04",
"L  c #2C9B06",
"P  c #2E9608",
"I  c #2F9A08",
"U  c #319707",
"Y  c #319C07",
"T  c #33940C",
"R  c #349C09",
"E  c #3A9E0A",
"W  c #358611",
"Q  c #3D8714",
"!  c #348A11",
"~  c #3A8C13",
"^  c #2A9A14",
"/  c #3F9511",
"(  c #339D15",
")  c #369D1C",
"_  c #1DA002",
"`  c #24A204",
"'  c #2EA107",
"]  c #2CA206",
"[  c #24AA03",
"{  c #2DA906",
"}  c #2EA208",
"|  c #31A207",
" . c #32A307",
".. c #31A607",
"X. c #39A407",
"o. c #33AA07",
"O. c #35A907",
"+. c #38AB07",
"@. c #35A108",
"#. c #34A308",
"$. c #35A308",
"%. c #36A509",
"&. c #3AA109",
"*. c #3AA10A",
"=. c #3EA00B",
"-. c #3EA20B",
";. c #3AA509",
":. c #3FA70B",
">. c #33AA08",
",. c #35AA08",
"<. c #3AA909",
"1. c #3CAB09",
"2. c #39AC09",
"3. c #34B007",
"4. c #3BB109",
"5. c #3AB208",
"6. c #38A217",
"7. c #36A01A",
"8. c #39A51C",
"9. c #3B802E",
"0. c #3E9C24",
"q. c #3A9E28",
"w. c #3C8534",
"e. c #3E8934",
"r. c #3B8639",
"t. c #35893A",
"y. c #3D8D3E",
"u. c #37A225",
"i. c #3CA428",
"p. c #3FA533",
"a. c #3EA83B",
"s. c #419F0C",
"d. c #438D15",
"f. c #4B8E17",
"g. c #459615",
"h. c #41A20B",
"j. c #42A40B",
"k. c #48A60D",
"l. c #42A80B",
"z. c #43AB0B",
"x. c #4BAB0D",
"c. c #44B30B",
"v. c #49B10D",
"b. c #53B10F",
"n. c #43A71D",
"m. c #408F3A",
"M. c #41933D",
"N. c #41A62B",
"B. c #44AA37",
"V. c #44A93D",
"C. c #49AF3D",
"Z. c #3E9041",
"A. c #429743",
"S. c #449C45",
"D. c #459F48",
"F. c #47A246",
"G. c #48A347",
"H. c #45AB43",
"J. c #49AD46",
"K. c #47A44A",
"L. c #48A64B",
"P. c #47AC49",
"I. c #4AAB4D",
"U. c #52B24F",
"Y. c #4CAF50",
"T. c #52AB55",
"R. c #4EB052",
"E. c #51B155",
"W. c #58B654",
"Q. c #56B45A",
"!. c #5AB55D",
"~. c #5EB761",
/* pixels */
"E I H @.K K I { H &.%.>.2.&.` ..K ] J H ] Y I I ] &.` H Y H m Y B =.R | | K ;.H U H =.K J K ` ..K P U @.;.J 1.R -.K @.H U U ] B ",
"H ] I =.H K K =.;.@.Y J P E I B ,.L R U >...J { B I Y C H I B H K | x.s.%.H Y &.Y C J K 2._ ] K E K E R &.K N s.R K ..R R K J | ",
"J R H I o.&.+.` K L K E +.J I @.J L R K ..,.Y B H I ..m &.O.H | H R E O.z.I 1.Y k.H b.L K ] 1.K L 5.B K %.l.K I I 2.R R :.J @.=.",
"H { m K &.H =...H ] @.2.K K K E R R | Y H I Y J H z.K o.I c.K ] U 5.L z.R K ;.J E | @.H H E E H ;.K K H | E H ` ,.` H U %.z.&.B ",
"+.5.&.L ] K H m J | K j.K =.E J Y K %.4.I P J Y | I o.K =.J.I.R.Y.R.R.I.R.I.Y.Y.J.$.Y ` &.I R @.E Y :.J K E | E ..H P @.L R U H ",
"L X.E C R &.L H J ] E H ;.R K @.2.| H &.J I Y Y @.| H S 3 D.K.F.K.K.K.F.L.K.L.L.S.2 ! ;.&.@.I I Y { Y B z.z.,.l.B ..] ] Y H ] J ",
"3.&.I z.P 1.I H =.] Y { K H @.I | z.] R U O.K +.%.1.o.4 , A.D.D.S.S.K.D.S.S.F.S.A., 3 R %.K I -.K R P Y 2.&.I 1.K E } ;.o.H Y Y ",
"1.H K Y L I 5.] X.Y K H | E ;.E { ....H { K ^ W.U.H.J.L.G.a y y y y y y r y y y a K.M.4 ~ ,.v.K Y h.R J B K H E K K H &.K H Y H ",
"{ J R K H Y J L E ;.H U I z.K L ..R ] c.B I I !.!.Y.Y.Y.Y.y , , : , , , , , , , y Y.y., P -.-.@.Y K Y H L K Y J H Y ] ;.B I 2.` ",
"K J K J L R ] =.H R j.H K H Y R J R | V.E.!.!.Y.Y.Y.Y.Y.Y.y , Y.R.R.Y.Y.Y.R.Y.Y.Y.Y.Y.Y.Y.Y.Y.@.R E B R L K L ] K ..J I | &.%.K ",
"K Y U K %.H U j.] @.v.%.Y E H H Y D b C.I.!.!.Y.Y.Y.I.L.G.a p Y.R.R.R.R.R.R.R.R.E.E.R.R.R.Y.Y.n.( ] X.J Y J E :.z.K s.@.1.2.] H ",
"O.z.O.E x.o.I K Z E K @.Y { R R z.4 , M.R.R.Y.Y.Y.Y.L.a , L.Y.R.R.~.~.~.~.~.~.~.!.~.~.!.E.Y.Y.Y.I.Y Y X.{ ] K H E ..| ] Y ] O.E ",
"E ..E Y z.@.z.K &.I O.=.H E 2.u.q.e.w.M.M.I.I.I.L.M.y.m.e.I.Y.R.Q.Q.Q.Q.Q.Q.Q.Q.!.Q.Q.Q.R.R.Y.Y.I.i.n.R B ] %.R J H @.] Y H J &.",
"] K N L H 1.I K K K z.J B E ^ T.Y.Y.Y.i , I.Y.U.S., , M.Y.Y.Y.~.Q.R.Y.Y.Y.R.Y.Y.R.R.Y.Y.Y.Y.Y.Y.Y.Y.a.I K 5.H K o...>.K ] ;.R K ",
"X.H E l.U Y X.K R | R E :.B.V.Q.W.Y.U.i , M.m.G.M., y S.Y.Y.R.R.R.R.R.Y.Y.Y.Y.Y.Y.Y.Y.Y.Y.Y.Y.Y.Y.Y.C.J J K I %.] I K R 2.] ` ` ",
"J K K P K E K I P I K K z.R.E.!.!.E.I.i , > , F.M., y M.Y.Y.Y.Y.R.I.Y.Y.Y.Y.Y.Y.Y.Y.Y.Y.Y.Y.Y.Y.Y.Y.B.L R &.h.K H o.C ] ;.I &.%.",
"H E H I I | h.R ,.H l.C.J.~.!.R.R.Y.Y.P.L.L.F.r a A.A.L.Y.Y.R.Y.Y.Y.I.R.Y.Y.Y.Y.Y.Y.Y.Y.Y.Y.Y.Y.Y.F.y.4 A I O.` H X.] B K &.Y L ",
"H Y R I L L V J >.Y @.J.Y.~.!.Y.Y.Y.Y.R.I.R.I.r a F.S.I.Y.Y.I.R.Y.R.R.I.Y.Y.Y.Y.Y.Y.Y.Y.Y.Y.Y.Y.Y.D.M., ! ] P H I E J H Y j.Y E ",
">.C K | I H K K K p.Y.Q.~.Y.Y.Y.Y.R.R.F.D., , , , , , m.F., , F.S.S.D.D.F.L.I.Y.Y.Y.Y.Y.Y.Y.R.G.S., a I.I.R.) 2.B X.j.=.J o.=.L ",
"B J B +.I U E ^ ( H.R.~.!.Y.Y.Y.I.I.I.A.M.a u , y a a y.y.y , M.M.y.M.M.M.L.L.L.I.I.Y.I.I.I.I.M.M.a w.R.R.E.i.6.( Y ] I 2.L I @.",
"J B z.;.Y K n.R.Y.Q.~.E.Y.R.Y.Y.L.S.F.i , I.I., a R.P.a , , , : , , , , , M.S.S.S.F.S.D.S.S.S.r , Y.Y.Y.Y.Y.Y.Y.R.K Y Y J J L E ",
"H %.] ` Y Y ) K.K.T.T.L.L.L.P.L.L.m.w.y , I.L.y.M.Y.I.M.e.w.e.e.e.e.a , > y.w.M.w.w.w.w.m.M.w., r Y.Y.Y.Y.Y.Y.Y.I.Y R E $.z.;.K ",
"z.2.K Y J ] 6.S.F.D.F.S.F.S.S.S.M.y , , , I.I.E.Y.Y.Y.Y.R.Y.Y.Y.R.I.M., , , , , , , r > , , , , , R.R.Y.Y.Y.Y.Y.R.X.x.X.+.c.=.I ",
"2.K I 2.:.K F a a a u a a a a a i r , M.M.Y.Y.I.E.Q.!.Q.!.Q.Q.Q.Q.R.P.M.S.M.M., r S.M.A.M.M.S.M.M.9.9.9.9.9.0.) 8.z.,.;.` +.1.H ",
"Y R J H ..H / , , , , , , , , , , , , S.Y.Y.Y.Y.Y.~.~.~.~.~.~.~.!.Y.R.R.Y.Y.Y., y Y.Y.E.L.R.Y.Y.I., , , , r U ..K E ` s.H @.J H ",
"R U K { ] P.P.P.L.w., S.L., i L.L.L.L.L.Y.Y.Y.~.~.Y.Y.Y.R.R.R.R.E.!.!.!.!.E.Y.P.G.y m.L.Y.Y.Y.Y.I.L.I.I.L.L.I.J.J.J R I ] E R :.",
"@.z.@.E J R.Y.R.I.w., K.R., a R.Y.Y.R.Y.Y.Y.Y.~.~.Y.Y.Y.Y.Y.Y.Y.E.~.~.~.~.E.Y.Y.L., w.I.Y.Y.Y.Y.R.Y.Y.Y.I.R.Y.Y.Y.@.E K I L H K ",
"I K I Y.Y.Y.Y.I.R.Y.U.I.I., , , a G.Y.Y.Y.Y.Y.Y.Y.Y.Y.Y.Y.Y.Y.Y.R.Y.Y.Y.I.Y.Y.Y.I.R.M., M.I.Y.Y.Y.Y.Y.Y.Y.Y.Y.Y.Y.K R ;.l.K %.R ",
"I I R R.I.F.F.R.I.R.Y.Y.Y., , , i S.L.R.Y.Y.Y.Y.Y.Y.R.Y.Y.Y.Y.Y.Y.Y.Y.Y.R.R.Y.Y.I.R.y.r y.I.Y.Y.Y.Y.Y.Y.Y.Y.Y.Y.I.7.6.K h.E | :.",
"| &.2.R.I., a R.Y.R.Y.Y.Y., , , y e.Z.L.Y.Y.Y.R.Y.Y.Y.Y.Y.Y.Y.Y.Y.Y.Y.Y.R.I.Y.Y.R.R.M.4 r.S.S.Y.Y.Y.Y.Y.R.I.Y.Y.R.R.H.E P R H I ",
"=.z.E t.t., a D.F.F.D.D.D., : 0 w p a Z.F.S.F.S.K.R.Y.Y.Y.Y.Y.Y.Y.Y.Y.Y.Y.Y.Y.Y.R.S.m.: e.S.S.L.L.K.L.L.K.J.M.y.y.Y.J.i.N.H B ] ",
"=.H R 5 # , u y.y.y.y.Z.y., : # ; : r w.Z.y.Z.y.Z.R.Y.Y.Y.Y.Y.Y.Y.Y.Y.Y.Y.Y.Y.Y.I.Z.d r r.S.S.F.S.D.D.F.F.F.i , , Y.Y.Y.R.K I Y ",
"I H K # 5 0 0 u y u u p p ; 9 5 5 9 ; q e u p y.Z.A.A.S.Z.S.A.S.A.A.Z.S.S.Z.S.A.A.i r 0 q t t a i t t t t t t.y.r.R.Y.Y.Y.R I I ",
"] ` K 9 5 = ; , , , , , > 5 5 5 5 5 5 5 5 > r Z.y.Z.y.y.Z.y.y.y.y.y.Z.y.y.y.Z.Z.r., 0 5 5 5 5 , , 5 5 5 5 5 y.S.S.Y.Y.Y.Y.R =.P ",
"H R E @ @ @ @ @ @ # # # # 9 5 5 5 5 5 5 5 > , r r r r r r r r r r r r r r r r 5 9 5 9 5 5 5 5 5 9 5 5 5 s A.S.D.S.r a D.D.=.K I ",
"B I ;.@ # @ @ @ @ @ @ # 9 # 5 5 5 5 5 5 5 , , , , > , : , , : : , , , , > , , 5 5 5 5 5 5 5 5 5 5 5 5 5 s S.S.D.S., y S.A.K C J ",
"%.| &.H H @ @ @ @ @ @ @ @ @ @ # 5 5 5 : , 5 5 5 5 5 5 5 5 5 5 5 5 5 5 5 5 5 5 , , 5 5 5 5 # 9 # 5 , y A.r.Z.r % % @ @ @ @ Y ;.@.",
"o.` J H I * = @ @ @ @ @ @ @ @ # # 5 # : > 5 # 5 5 5 5 5 5 5 5 5 5 5 5 5 5 5 5 0 : 0 # ; # ; $ # $ > r d d d 7 % % @ @ * * H %.[ ",
"H z.1.o.C R F @ @ @ @ @ @ @ @ @ @ @ @ $ % @ @ 5 5 5 5 5 5 5 5 5 5 5 5 5 5 5 5 5 $ , > % : % % % : % % % 7 : 7 8 8 @ = K H K H R ",
"B Y ] E =.] R 1 < < < # @ @ @ @ @ $ $ $ $ @ @ @ 5 @ # 5 5 5 5 5 5 @ 5 # # # # # # $ % $ $ $ $ $ $ $ $ $ $ % $ 6 6 1 < E ] +.K ] ",
"V K J R E ,.4.o.] E I # @ @ @ @ $ $ % @ @ @ @ @ @ @ @ # = 5 5 5 5 @ @ @ @ @ @ @ @ @ @ @ @ @ @ @ @ @ @ @ @ @ @ @ @ v.R R O.R @.L ",
"@.I Y K H ..Y U I E H ! P S D D - S U ; @ @ @ @ @ @ @ @ # @ # @ @ @ @ @ @ @ @ @ @ @ @ @ @ @ @ F S A A M M A A S G E K @.H J =.K ",
"K K z.K I ] Y Y { o.[ %.Y H %.z.U I ` ; @ @ @ @ @ @ @ @ @ @ @ @ @ @ @ @ @ @ @ @ @ @ @ @ @ @ @ @.] H B | @.H K J B L ] ] J R P m ",
"I V H J Y H K E Y H Y @.B K =.Y H Y B m U X.Y @ @ @ @ @ @ @ @ @ @ @ @ @ @ F H R | X...H J ] K +.j.@.I H H J E U ] _ K E %.=.H R ",
"I I Y R C Y K K X.%.H K ..I ` ] H Y C @.&.1...# # # @ # @ @ @ @ @ @ @ @ @ < J R Y =.I H | R H { &.| K l.c.2.K H &.B ] c.Y ` Y &.",
"K R R B &.c.P R O.Y Y H I ] &.H H J J ] J X.m =.h.K J J H . . . . X X X . 3 R X.E K P K E =.H H K K m K 1.;.B K ..H J K =.B ] J ",
"` =.C I H 1.R X.{ E | @.@.K K J ] E U @.H =.J I X.@.1.K =.  . . X o o O o S s.&.H B I Y B $.5.J H I z.R ..] ` ,.` ..R H I C L R ",
"K K I @.;.k.X.H P Y J C ` U I | ] R z.| H z.J J 2.R E J V   . . o c c c j d.U R 1.+.2.2.K I @...R J I Y K I K B L K L Y J J I @.",
"J J j.H J K K U K @.J | L E H L z.K E R l.h.K %.K R | U ..  X + + c c c c ~ o.I k.R :.J Y X.I $.>.K ] I H K L L Y E H J 2.K Y R ",
"] Y ` C @.J P m E Y K %.` L J H H 2.B Y Y 1.I K @.=...C h.  . j c c c c c g.K K K Y j.K U K ] =.&.2.V I 1.R H ..L R I R X.J Y I ",
"] ` I Y K U ` L j.;.I H H ` Y V Y | ;.` { K m n R o.C ;.@.  X c c c c c c W @.B J R 1.1.I ] I ..J R B %.H h.E R { ` +.U E R X.` ",
"[ @.=.H K j.Y ;.E H ..K E I z.K Y B P %.` %.K H H I H ,.J   X c c c c c c / K J =.Y =._ I &.&.I | R E Y @.E K Y J &.E Y O.` j.&.",
"] L I I ] &.H B ,.J K ..%.H Y J &.O.P E ;.;.J R @.] P ..J h c c c c c c c ~ ] z.R I B ] I I ` &.B I :.` 5.` ..J I =.K E @.+.R X.",
":.X.H ] K R B 5.H ;.B m ` J H I ] { Y H ..K B 2.K B K X.H h c c c c c c c f.@.I Y %.O.] | m H R H H +.o.J K J K I &.=.L P I E Y ",
"..E { O.I Y Z H } z.K J ` ] m ] R R ,.| J R E K P E %.2.j.h j c c c c c c d.I K @.] ] B Y Y P o.R R H =.[ +.@.| E | z.K L =.I I ",
"K U :.U K k.@.O.R U ..j.U | +.J H ..2.H Z E H R R R =.[ ] h c c c c c c c F U | E L K | X.m R 1.h.J H | P J @.K &.] c.J U ..K K ",
"2.@.E E m &.&.@.;.B R K =...B Y I x.E H ..2.H B ` x.J H I j c c c c c c c Q k.] K Y ] H R ;.%.H 1.{ ..Y @.H o.K J H I H B J U @.",
"K &.] E E @.K ] L K J K &.I H K U I Y L Y %.K H I J :.g z j c c c c c c c k l I ..=.H X.z.H &.Y K B K E H B @.2.o.J o.X.] B =.I ",
"P @.] K @.j.I K K c.,.K K K E B | ..@.>.Y K R ..L J E x j c c c c c c c c c c L ;.....] ;.H E I E H I ] { Y ;.K I X.+.;.Y { Y I ",
"%.B | @.+.2.H K ] ] B ,.H K I } I n n B @.I &.B R ..1.G Q j c c c c c c c f d.L +.C N &.E c.j.H =.2...R E } | L K =.E @.R ] K z.",
";.Y K H | @.R Y H I 2.E K o.Y U I L Y K L Y R L ] J E B P h j c c c c c c d.J | J Y Y Y &.E H ] K Y ] | B m E L H Y H I J R H J ",
"&.] I m J R B z.$.R C J z.K P V H =.:.V E R @.K I E $.@.| ` Z U I H E R 2.| Y n =.L J { I v.z.;.| ] U K E v ] K Y K R K &.&.] R ",
"K K J I B Y K @.] | K Y P K E R K | Y ] K ` %.B I L E 2.R =.Y H @.H >.m Y P I @.I j.H E K ] R @.R R E R U J :.I K ,.I %.2.L L K ",
"&.l.[ K o.B I m I E K I P z.@.o.=.&.| L H K j.K ;.h.E J =.Y ] Y U 2.} 2.| l.] ] Y K | J H H Y K U j.K 1.+.%.I O.&.K R Y z.Y K H "
};
